<svg version="1.1" id="Layer_1" xmlns="http://www.w3.org/2000/svg" xmlns:xlink="http://www.w3.org/1999/xlink" x="0px"
	y="0px" width="100%" viewBox="0 0 866 808" enable-background="new 0 0 866 808" xml:space="preserve">
	<path fill="#010101" opacity="1.000000" stroke="none" d="
M626.007446,9.546383 
	C675.332214,9.521795 724.658447,9.254949 773.981506,9.540814 
	C823.254028,9.826385 855.613525,49.279301 857.088379,90.188591 
	C858.216370,121.478493 857.601196,152.834915 857.588135,184.161667 
	C857.514771,359.642212 857.380127,535.122803 857.285889,710.603333 
	C857.258728,761.204102 820.343018,798.765503 769.787964,798.889526 
	C667.298828,799.140930 564.808899,799.084473 462.319305,799.154236 
	C457.529114,799.157532 452.738892,799.154663 447.613190,799.154663 
	C447.613190,765.111877 447.613190,731.377869 447.613190,697.628418 
	C476.917114,703.532898 501.173096,696.063599 517.089966,669.890015 
	C529.656982,649.224915 529.370789,627.343506 516.568848,606.912964 
	C500.589661,581.412048 476.669006,573.821777 447.251129,580.080078 
	C447.251129,575.848083 447.237183,571.749573 447.253693,567.651245 
	C447.307373,554.320190 447.358795,540.989014 447.437988,527.658081 
	C447.482361,520.186401 444.015015,516.594666 436.544128,516.559692 
	C411.713898,516.443481 386.883606,516.351135 362.053314,516.251587 
	C360.090546,516.243713 358.127747,516.250610 355.581848,516.250610 
	C355.581848,494.622833 355.581848,473.413147 355.581848,452.203491 
	C355.188324,452.068634 354.794830,451.933777 354.401306,451.798950 
	C353.500824,453.238525 352.639771,454.704559 351.693451,456.113342 
	C345.568115,465.231842 339.242035,474.223297 333.398438,483.518311 
	C331.663910,486.277283 330.588196,489.838867 330.398071,493.101898 
	C329.962952,500.569824 330.260498,508.080414 330.260498,516.412598 
	C324.890320,516.412598 319.429199,516.121460 314.026978,516.558594 
	C311.921112,516.729065 309.387726,518.068176 308.021179,519.692749 
	C304.180817,524.258179 300.845947,529.248840 296.819946,534.743042 
	C340.975677,534.743042 384.470886,534.743042 428.402954,534.743042 
	C428.511078,537.007019 428.665314,538.758667 428.667480,540.510437 
	C428.688507,557.341858 428.682922,574.173218 428.686920,591.004639 
	C428.689178,600.634155 434.820038,604.552917 443.555359,600.511047 
	C466.647461,589.826172 489.621246,595.649048 502.068848,615.341736 
	C519.523560,642.955933 500.754608,679.926880 468.180145,682.123108 
	C459.377563,682.716614 450.969025,681.459351 442.894714,677.677063 
	C435.172638,674.059814 428.841705,678.255920 428.839203,686.870911 
	C428.829102,721.700562 428.888763,756.530212 428.922150,791.359863 
	C428.924347,793.660767 428.922424,795.961670 428.922424,798.512085 
	C370.753204,798.512085 313.028503,798.512085 254.716660,798.512085 
	C261.897430,781.431213 262.808990,764.642395 255.786514,747.733582 
	C250.685028,735.450195 242.247864,726.018494 231.116089,719.023438 
	C209.990036,705.747925 179.729492,707.786926 160.277069,723.498840 
	C141.214981,738.895569 129.839661,767.088867 142.859879,797.719482 
	C142.453400,797.880493 142.051987,798.178894 141.651093,798.178162 
	C125.320869,798.148926 108.933655,798.945374 92.672707,797.857666 
	C61.517284,795.773499 37.765251,780.948303 22.485868,753.450195 
	C16.584251,742.829102 13.277565,731.223816 13.199089,719.053650 
	C12.930454,677.392944 12.960874,635.730347 12.893723,594.068420 
	C12.892976,593.604614 13.112659,593.140442 13.348599,592.203064 
	C14.923377,592.203064 16.542772,592.201538 18.162165,592.203247 
	C42.326359,592.228760 66.490768,592.208252 90.654579,592.317383 
	C95.941101,592.341248 100.735222,591.610657 103.420143,586.403259 
	C105.989464,581.420044 104.651390,576.938293 101.808327,572.339966 
	C91.073463,554.977844 88.192963,536.531616 96.641495,517.543091 
	C106.853561,494.590881 130.667618,483.309509 155.324081,488.881592 
	C156.548508,489.158295 157.784836,489.382233 159.907547,489.810852 
	C154.833420,483.449402 150.401123,477.669281 145.656952,472.157623 
	C144.835999,471.203857 142.686401,471.058411 141.163116,471.093079 
	C90.959373,472.236145 60.502098,522.790649 81.035683,568.799744 
	C81.630669,570.132935 82.302460,571.431885 83.223404,573.335999 
	C59.760204,573.335999 36.852943,573.335999 13.467152,573.335999 
	C13.467152,527.573730 13.467152,481.539490 13.467152,435.023987 
	C47.159943,435.023987 81.016922,435.023987 115.497559,435.023987 
	C108.591034,426.444305 102.254265,418.384827 95.634132,410.565277 
	C94.716721,409.481659 92.400879,409.200714 90.729797,409.193939 
	C67.065811,409.097687 43.401382,409.112976 19.737061,409.101532 
	C17.743090,409.100586 15.749121,409.101440 13.281033,409.101440 
	C13.188710,407.509308 13.037864,406.084503 13.033183,404.659271 
	C12.711386,306.671509 12.308774,208.683792 12.208625,110.695786 
	C12.196260,98.598419 12.138072,86.095848 14.958143,74.474327 
	C24.708338,34.293713 56.795418,9.752197 98.222992,9.718122 
	C219.377075,9.618471 340.531281,9.679410 461.685455,9.670734 
	C481.845490,9.669291 502.005554,9.634332 522.622803,10.055378 
	C515.741943,21.408787 508.499817,32.387581 501.050446,43.223896 
	C452.064819,114.481499 403.055939,185.723129 354.011566,256.940277 
	C319.236420,307.437134 284.396545,357.889465 249.565994,408.348175 
	C248.580627,409.775635 247.372894,411.049652 245.841110,412.916504 
	C213.360336,374.294098 181.348755,336.229584 149.184982,297.984100 
	C126.546341,317.669342 104.228416,337.075745 81.605057,356.747681 
	C86.145630,362.124542 90.429283,367.183411 94.698334,372.254639 
	C130.106247,414.315674 165.498917,456.389587 200.925766,498.434723 
	C210.476562,509.769653 219.706909,521.416138 229.852356,532.196899 
	C240.091583,543.077393 257.004761,542.577881 267.373413,531.828796 
	C270.594269,528.489685 273.449097,524.734741 276.086090,520.904785 
	C310.288879,471.228790 344.441895,421.518494 378.567474,371.789398 
	C414.389038,319.588898 450.166168,267.357941 485.965149,215.141937 
	C530.336182,150.422806 574.719910,85.712364 619.055542,20.968992 
	C621.570312,17.296675 623.699036,13.360020 626.007446,9.546383 
z" />
	<path fill="#03A0E5" opacity="1.000000" stroke="none" d="
M625.676636,9.293723 
	C623.699036,13.360020 621.570312,17.296675 619.055542,20.968992 
	C574.719910,85.712364 530.336182,150.422806 485.965149,215.141937 
	C450.166168,267.357941 414.389038,319.588898 378.567474,371.789398 
	C344.441895,421.518494 310.288879,471.228790 276.086090,520.904785 
	C273.449097,524.734741 270.594269,528.489685 267.373413,531.828796 
	C257.004761,542.577881 240.091583,543.077393 229.852356,532.196899 
	C219.706909,521.416138 210.476562,509.769653 200.925766,498.434723 
	C165.498917,456.389587 130.106247,414.315674 94.698334,372.254639 
	C90.429283,367.183411 86.145630,362.124542 81.605057,356.747681 
	C104.228416,337.075745 126.546341,317.669342 149.184982,297.984100 
	C181.348755,336.229584 213.360336,374.294098 245.841110,412.916504 
	C247.372894,411.049652 248.580627,409.775635 249.565994,408.348175 
	C284.396545,357.889465 319.236420,307.437134 354.011566,256.940277 
	C403.055939,185.723129 452.064819,114.481499 501.050446,43.223896 
	C508.499817,32.387581 515.741943,21.408787 523.093872,10.125690 
	C524.866089,9.378433 526.624084,8.674451 528.382690,8.672873 
	C559.879639,8.644589 591.376709,8.699090 622.873718,8.752350 
	C623.697876,8.753743 624.521729,8.940657 625.676636,9.293723 
z" />
	<path fill="#020202" opacity="1.000000" stroke="none" d="
M179.838837,731.719482 
	C199.565552,723.859863 218.986877,727.606934 231.485443,741.448914 
	C244.349701,755.695862 246.832687,777.198853 237.781128,794.571716 
	C236.222809,797.562683 234.487793,798.737183 230.873627,798.622681 
	C219.401840,798.259338 207.911911,798.464661 196.428986,798.458618 
	C185.117386,798.452759 173.805786,798.457275 162.244049,798.457275 
	C146.024017,775.947815 154.074005,744.267639 179.838837,731.719482 
z" />
	<path fill="#169AD5" opacity="1.000000" stroke="none" d="
M529.504517,404.533630 
	C535.129211,420.195831 540.597717,435.501862 546.380371,451.687195 
	C542.772034,451.687195 539.739624,452.186432 537.012756,451.489807 
	C535.507874,451.105347 533.729980,448.853027 533.438477,447.202057 
	C532.540771,442.117676 529.994202,440.053223 524.906067,440.890015 
	C523.446960,441.129974 521.915894,440.926331 520.417908,440.936920 
	C512.448730,440.993103 512.319336,440.955750 510.088623,448.442535 
	C509.269592,451.191467 507.955139,452.250183 505.139679,451.979248 
	C502.864563,451.760284 500.551605,451.934845 497.434052,451.934845 
	C500.246338,443.930817 502.816559,436.612000 505.389404,429.294128 
	C508.202087,421.294128 511.114288,413.327118 513.775757,405.277161 
	C514.643921,402.651184 515.905090,401.417206 518.759644,401.669403 
	C520.899475,401.858459 523.145630,401.248169 525.219360,401.645935 
	C526.702942,401.930511 527.979492,403.294891 529.504517,404.533630 
M526.182495,425.273041 
	C524.791382,420.829132 523.400208,416.385254 522.009033,411.941376 
	C521.700073,411.988586 521.391174,412.035828 521.082275,412.083069 
	C519.154846,418.502319 517.227478,424.921570 515.229919,431.574280 
	C519.713684,431.574280 523.604065,431.574280 528.107788,431.574280 
	C527.461487,429.407257 526.956543,427.714294 526.182495,425.273041 
z" />
	<path fill="#1597D4" opacity="1.000000" stroke="none" d="
M564.493530,416.424805 
	C564.570374,426.381622 564.620789,435.871613 564.679260,445.361572 
	C564.719788,451.935242 564.724609,451.946716 558.229187,451.872192 
	C556.936401,451.857391 555.645020,451.717255 553.731079,451.595276 
	C553.731079,448.903137 553.746216,446.461700 553.728577,444.020569 
	C553.640747,431.868774 553.520813,419.717224 553.460510,407.565308 
	C553.428467,401.109100 553.472839,401.101685 560.104187,401.231689 
	C561.244690,401.254028 562.383423,401.366516 564.470642,401.496216 
	C564.470642,406.436127 564.470642,411.197052 564.493530,416.424805 
z" />
</svg>